<svg xmlns="http://www.w3.org/2000/svg" viewBox="0 0 32 32">
  <style>
    .background {
      fill: #1c1c1c;
    }

    .wordmark {
      fill: #fdfcfb;
    }

    @media (prefers-color-scheme: dark) {
      .background {
        fill: #edece9;
      }

      .wordmark {
        fill: #121211;
      }
    }
  </style>

  <path
    class="background"
    d="M13.5 4.8 C18.2 3.9 22.6 5.8 25.3 9.4 C27.6 12.5 27.4 15.8 25.9 19.4 C24.6 22.6 22.8 25.6 18.9 26.8 C14.7 28.1 9.6 27.2 6.8 23.7 C4.3 20.5 4.6 15.4 6 11.2 C7.2 7.6 9.4 5.6 13.5 4.8 Z"
    transform="translate(16 16) scale(1.25) translate(-16 -16)"
  />
  <g class="wordmark" transform="translate(7.29 .91) scale(.02193)">
    <path d="M359.38 578.61H495.12C487.3 478.03 404.3 414.55 270.51 414.55C133.79 414.55 45.9 478.03 46.88 579.59C45.9 657.71 98.63 710.45 199.22 729.98L287.11 747.56C336.91 758.3 359.38 774.9 359.38 802.25C359.38 836.43 324.22 857.91 271.48 857.91C218.75 857.91 184.57 836.43 177.73 794.43H32.23C43.95 897.95 127.93 962.4 271.48 962.4C412.11 962.4 505.86 892.09 506.84 787.6C505.86 711.43 456.05 665.53 353.52 644.04L258.79 624.51C208.98 613.77 189.45 595.21 190.43 571.78C189.45 539.55 225.59 517.09 272.46 517.09C320.31 517.09 353.52 541.5 359.38 578.61Z" />
    <path
      d="M680.66 960.45C723.63 960.45 761.72 923.34 761.72 878.42C761.72 833.5 723.63 797.36 680.66 797.36C634.77 797.36 597.66 833.5 598.63 878.42C597.66 923.34 634.77 960.45 680.66 960.45Z"
      transform="translate(-18.24)"
    />
  </g>
</svg>
